<svg version="1.1" xmlns="http://www.w3.org/2000/svg" xmlns:xlink="http://www.w3.org/1999/xlink" width="63" height="87.80001" viewBox="0,0,63,87.80001"><g transform="translate(-199.5,-114.49999)"><g data-paper-data="{&quot;isPaintingLayer&quot;:true}" fill-rule="nonzero" stroke="#000000" stroke-width="2" stroke-linecap="butt" stroke-linejoin="miter" stroke-miterlimit="10" stroke-dasharray="" stroke-dashoffset="0" style="mix-blend-mode: normal"><path d="M202.82381,167.78571c-1.28341,0 -2.32381,-1.04041 -2.32381,-2.32381v-47.6381c0,-1.28341 1.04041,-2.32381 2.32381,-2.32381h56.35238c1.28341,0 2.32381,1.04041 2.32381,2.32381v47.6381c0,1.28341 -1.04041,2.32381 -2.32381,2.32381z" fill="#73ff66"/><path d="M221.3,201.3c-2.20914,0 -4,-1.79086 -4,-4v-26c0,-0.87276 -0.24609,-5.57309 -0.24609,-5.57309c0,0 2.90971,1.57309 4.24609,1.57309h19.6c1.09837,0 4.16915,-1.19353 4.16915,-1.19353c0,0 -0.16915,4.08276 -0.16915,5.19353v26c0,2.20914 -1.79086,4 -4,4z" fill="#9e6262"/></g></g></svg>